<svg xmlns="http://www.w3.org/2000/svg" xmlns:xlink="http://www.w3.org/1999/xlink" width="1240" height="277.1"><rect width="1240" height="277.1" rx="5" ry="5" class="a"/><svg y="0%" x="0%"><circle cx="20" cy="20" r="6" fill="#ff5f58"/><circle cx="40" cy="20" r="6" fill="#ffbd2e"/><circle cx="60" cy="20" r="6" fill="#18c132"/></svg><svg height="217.1" viewBox="0 0 220 21.71" width="2200" x="15" xmlns="http://www.w3.org/2000/svg" xmlns:xlink="http://www.w3.org/1999/xlink" y="50"><style>@keyframes p{0%{transform:translateX(-440px)}14.8%{transform:translateX(-880px)}19.7%{transform:translateX(-1320px)}24.1%{transform:translateX(-1540px)}37.3%{transform:translateX(-1760px)}43.6%{transform:translateX(-2200px)}46%{transform:translateX(-2640px)}48.6%{transform:translateX(-3080px)}59.8%{transform:translateX(-3300px)}62.4%{transform:translateX(-3520px)}65.2%{transform:translateX(-3740px)}73.3%{transform:translateX(-3960px)}73.4%{transform:translateX(-4400px)}76.6%{transform:translateX(-4620px)}76.8%{transform:translateX(-5060px)}78.1%{transform:translateX(-5500px)}78.2%{transform:translateX(-5720px)}to{transform:translateX(-5940px)}}.a{fill:#282d35}.f,.g,.h{white-space:pre}.f{fill:#71bef2;font-weight:700}.g,.h{fill:#66c2cd}.h{fill:#b9c0cb}.i{fill:#a8cc8c}.i,.j,.k{white-space:pre}.j{fill:#dbab79;font-weight:700}.k{fill:#71bef2}.l{fill:#e88388}.l,.m,.r{white-space:pre}.m{fill:#e88388;font-weight:700}.r{fill:#6f7783}</style><g font-family="Monaco,Consolas,Menlo,'Bitstream Vera Sans Mono','Powerline Symbols',monospace" font-size="1.67"><defs><symbol id="1"><text y="1.67" class="f">#</text><text x="2.004" y="1.67" class="g">caohenghu</text><text x="12.024" y="1.67" class="h">@</text><text x="14.028" y="1.67" class="i">caohenghudeMacBook-Pro</text><text x="37.074" y="1.67" class="h">in</text><text x="40.08" y="1.67" class="j">~/project/ygp-mall-pc-static</text><text x="69.138" y="1.67" class="h">on</text><text x="72.144" y="1.67" class="k">git:</text><text x="76.152" y="1.67" class="g">20221107_ygp-mall-pc-static_ooo</text><text x="108.216" y="1.67" class="l">x</text><text x="110.22" y="1.67" class="h">[11:23:35]</text></symbol><symbol id="2"><text y="1.67" class="m">$</text></symbol><symbol id="3"><text y="1.67" class="m">$</text><text x="2.004" y="1.67" class="i">gcb-cli</text><text x="10.02" y="1.67" class="h">mmm</text></symbol><symbol id="4"><text y="1.67" class="h">Switched</text><text x="9.018" y="1.67" class="h">to</text><text x="12.024" y="1.67" class="h">a</text><text x="14.028" y="1.67" class="h">new</text><text x="18.036" y="1.67" class="h">branch</text><text x="25.05" y="1.67" class="h">&apos;20221107_ygp-mall-pc-static_mmm&apos;</text></symbol><symbol id="5"><text y="1.67" class="f">#</text><text x="2.004" y="1.67" class="g">caohenghu</text><text x="12.024" y="1.67" class="h">@</text><text x="14.028" y="1.67" class="i">caohenghudeMacBook-Pro</text><text x="37.074" y="1.67" class="h">in</text><text x="40.08" y="1.67" class="j">~/project/ygp-mall-pc-static</text><text x="69.138" y="1.67" class="h">on</text><text x="72.144" y="1.67" class="k">git:</text><text x="76.152" y="1.67" class="g">20221107_ygp-mall-pc-static_mmm</text><text x="108.216" y="1.67" class="l">x</text><text x="110.22" y="1.67" class="h">[11:23:39]</text></symbol><symbol id="a"><path fill="transparent" d="M0 0h220v11H0z"/></symbol><symbol id="b"><path fill="#6f7683" d="M0 0h1.102v2.171H0z"/></symbol></defs><path class="a" d="M0 0h220v21.71H0z"/><g style="animation-duration:6.21718s;animation-iteration-count:infinite;animation-name:p;animation-timing-function:steps(1,end)"><svg width="6160"><svg><use xlink:href="#a"/><use xlink:href="#b" x="1.996" y="4.317"/><use xlink:href="#1" y="2.171"/><use xlink:href="#2" y="4.342"/></svg><svg x="220"><use xlink:href="#a"/><use xlink:href="#b" x="1.996" y="4.317"/><use xlink:href="#1" y="2.171"/><use xlink:href="#2" y="4.342"/></svg><svg x="440"><use xlink:href="#a"/><use xlink:href="#b" x="1.996" y="4.317"/><use xlink:href="#1" y="2.171"/><use xlink:href="#2" y="4.342"/></svg><svg x="660"><use xlink:href="#a"/><use xlink:href="#b" x="2.996" y="4.317"/><use xlink:href="#1" y="2.171"/><text y="6.012" class="m">$</text><text x="2.004" y="6.012" class="m">g</text></svg><svg x="880"><use xlink:href="#a"/><use xlink:href="#b" x="2.996" y="4.317"/><use xlink:href="#1" y="2.171"/><text y="6.012" class="m">$</text><text x="2.004" y="6.012" class="m">g</text><text x="3.006" y="6.012" class="r">it</text><text x="6.012" y="6.012" class="r">co</text><text x="9.018" y="6.012" class="r">-</text></svg><svg x="1100"><use xlink:href="#a"/><use xlink:href="#b" x="3.996" y="4.317"/><use xlink:href="#1" y="2.171"/><text y="6.012" class="m">$</text><text x="2.004" y="6.012" class="m">gc</text></svg><svg x="1320"><use xlink:href="#a"/><use xlink:href="#b" x="3.996" y="4.317"/><use xlink:href="#1" y="2.171"/><text y="6.012" class="m">$</text><text x="2.004" y="6.012" class="m">gc</text><text x="4.008" y="6.012" class="r">b-cli</text><text x="10.02" y="6.012" class="r">ooo</text></svg><svg x="1540"><use xlink:href="#a"/><use xlink:href="#b" x="4.996" y="4.317"/><use xlink:href="#1" y="2.171"/><text y="6.012" class="m">$</text><text x="2.004" y="6.012" class="m">gcb</text><text x="5.01" y="6.012" class="r">-cli</text><text x="10.02" y="6.012" class="r">ooo</text></svg><svg x="1760"><use xlink:href="#a"/><use xlink:href="#b" x="12.996" y="4.317"/><use xlink:href="#1" y="2.171"/><text y="6.012" class="m">$</text><text x="2.004" y="6.012" class="i">gcb-cli</text><text x="10.02" y="6.012" class="h">ooo</text></svg><svg x="1980"><use xlink:href="#a"/><use xlink:href="#b" x="11.996" y="4.317"/><use xlink:href="#1" y="2.171"/><text y="6.012" class="m">$</text><text x="2.004" y="6.012" class="i">gcb-cli</text><text x="10.02" y="6.012" class="h">oo</text></svg><svg x="2200"><use xlink:href="#a"/><use xlink:href="#b" x="11.996" y="4.317"/><use xlink:href="#1" y="2.171"/><text y="6.012" class="m">$</text><text x="2.004" y="6.012" class="i">gcb-cli</text><text x="10.02" y="6.012" class="h">oo</text><text x="12.024" y="6.012" class="r">o</text></svg><svg x="2420"><use xlink:href="#a"/><use xlink:href="#b" x="10.996" y="4.317"/><use xlink:href="#1" y="2.171"/><text y="6.012" class="m">$</text><text x="2.004" y="6.012" class="i">gcb-cli</text><text x="10.02" y="6.012" class="h">o</text></svg><svg x="2640"><use xlink:href="#a"/><use xlink:href="#b" x="10.996" y="4.317"/><use xlink:href="#1" y="2.171"/><text y="6.012" class="m">$</text><text x="2.004" y="6.012" class="i">gcb-cli</text><text x="10.02" y="6.012" class="h">o</text><text x="11.022" y="6.012" class="r">oo</text></svg><svg x="2860"><use xlink:href="#a"/><use xlink:href="#b" x="9.996" y="4.317"/><use xlink:href="#1" y="2.171"/><text y="6.012" class="m">$</text><text x="2.004" y="6.012" class="i">gcb-cli</text></svg><svg x="3080"><use xlink:href="#a"/><use xlink:href="#b" x="9.996" y="4.317"/><use xlink:href="#1" y="2.171"/><text y="6.012" class="m">$</text><text x="2.004" y="6.012" class="i">gcb-cli</text><text x="10.02" y="6.012" class="r">ooo</text></svg><svg x="3300"><use xlink:href="#a"/><use xlink:href="#b" x="10.996" y="4.317"/><use xlink:href="#1" y="2.171"/><text y="6.012" class="m">$</text><text x="2.004" y="6.012" class="i">gcb-cli</text><text x="10.02" y="6.012" class="h">m</text></svg><svg x="3520"><use xlink:href="#a"/><use xlink:href="#b" x="11.996" y="4.317"/><use xlink:href="#1" y="2.171"/><text y="6.012" class="m">$</text><text x="2.004" y="6.012" class="i">gcb-cli</text><text x="10.02" y="6.012" class="h">mm</text></svg><svg x="3740"><use xlink:href="#a"/><use xlink:href="#b" x="12.996" y="4.317"/><use xlink:href="#1" y="2.171"/><use xlink:href="#3" y="4.342"/></svg><svg x="3960"><use xlink:href="#a"/><use xlink:href="#b" x="12.996" y="4.317"/><use xlink:href="#1" y="2.171"/><use xlink:href="#3" y="4.342"/></svg><svg x="4180"><use xlink:href="#a"/><use xlink:href="#b" x="-.004" y="6.488"/><use xlink:href="#1" y="2.171"/><use xlink:href="#3" y="4.342"/></svg><svg x="4400"><use xlink:href="#a"/><use xlink:href="#b" x="-.004" y="6.488"/><use xlink:href="#1" y="2.171"/><use xlink:href="#3" y="4.342"/></svg><svg x="4620"><use xlink:href="#a"/><use xlink:href="#b" x="-.004" y="8.659"/><use xlink:href="#1" y="2.171"/><use xlink:href="#3" y="4.342"/><use xlink:href="#4" y="6.513"/></svg><svg x="4840"><use xlink:href="#a"/><use xlink:href="#b" x="-.004" y="8.659"/><use xlink:href="#1" y="2.171"/><use xlink:href="#3" y="4.342"/><use xlink:href="#4" y="6.513"/></svg><svg x="5060"><use xlink:href="#a"/><use xlink:href="#b" x="-.004" y="8.659"/><use xlink:href="#1" y="2.171"/><use xlink:href="#3" y="4.342"/><use xlink:href="#4" y="6.513"/></svg><svg x="5280"><use xlink:href="#a"/><use xlink:href="#b" x="1.996" y="13.001"/><use xlink:href="#1" y="2.171"/><use xlink:href="#3" y="4.342"/><use xlink:href="#4" y="6.513"/><use xlink:href="#5" y="10.855"/><use xlink:href="#2" y="13.026"/></svg><svg x="5500"><use xlink:href="#a"/><use xlink:href="#b" x="1.996" y="13.001"/><use xlink:href="#1" y="2.171"/><use xlink:href="#3" y="4.342"/><use xlink:href="#4" y="6.513"/><use xlink:href="#5" y="10.855"/><use xlink:href="#2" y="13.026"/></svg><svg x="5720"><use xlink:href="#a"/><use xlink:href="#b" x="1.996" y="13.001"/><use xlink:href="#1" y="2.171"/><use xlink:href="#3" y="4.342"/><use xlink:href="#4" y="6.513"/><use xlink:href="#5" y="10.855"/><use xlink:href="#2" y="13.026"/></svg><svg x="5940"><use xlink:href="#a"/><use xlink:href="#b" x="-.004" y="15.172"/><use xlink:href="#1" y="2.171"/><use xlink:href="#3" y="4.342"/><use xlink:href="#4" y="6.513"/><use xlink:href="#5" y="10.855"/><use xlink:href="#2" y="13.026"/></svg></svg></g></g></svg></svg>
